<svg width="17" height="17" viewBox="0 0 17 17" fill="none" xmlns="http://www.w3.org/2000/svg">
<g id="Frame">
<path id="Vector" d="M5.12177 12.9712L6.84115 13.4072L6.84607 12.8076L6.98796 12.6647L7.97256 12.6518L7.96273 13.8509L6.90767 13.8647L5.61118 13.3175L5.1221 12.9712L5.12177 12.9712Z" fill="#CDBDB2"/>
<path id="Vector_2" d="M10.7483 12.8976L9.05664 13.3783L9.06156 12.7786L8.92198 12.6394L7.93738 12.6523L7.92754 13.8514L8.98259 13.8376L10.2882 13.2563L10.7483 12.8976Z" fill="#CDBDB2"/>
<path id="Vector_3" d="M6.99634 11.6417L6.84606 12.8077L7.023 12.6643L8.85165 12.6403L9.06151 12.7786L8.93033 11.6164L8.65048 11.4438L7.24356 11.4974L6.99634 11.6417Z" fill="#393939"/>
<path id="Vector_4" d="M6.11133 3.78857L6.93917 5.75277L7.2788 11.497L8.65021 11.479L9.11939 5.72423L9.90919 3.73886L6.11133 3.78857Z" fill="#F89C35"/>
<path id="Vector_5" d="M2.38358 8.17535L1.37554 11.0453L3.83821 10.872L5.42063 10.8513L5.43075 9.61674L5.38114 7.07799L5.02725 7.36489L2.38358 8.17535Z" fill="#F89D35"/>
<path id="Vector_6" d="M4.24463 8.46832L7.12759 8.50119L6.79892 9.98677L5.43041 9.65197L4.24463 8.46832Z" fill="#D87C30"/>
<path id="Vector_7" d="M4.24438 8.50372L5.43074 9.61676L5.42148 10.7454L4.24438 8.50372Z" fill="#EA8D3A"/>
<path id="Vector_8" d="M5.43042 9.65198L6.83399 9.98631L7.27879 11.497L6.96083 11.6776L5.42116 10.7807L5.43042 9.65198Z" fill="#F89D35"/>
<path id="Vector_9" d="M5.42117 10.7806L5.12177 12.9712L6.99635 11.6417L5.42117 10.7806Z" fill="#EB8F35"/>
<path id="Vector_10" d="M7.12762 8.50119L7.27881 11.497L6.76387 9.96962L7.12762 8.50119Z" fill="#EA8E3A"/>
<path id="Vector_11" d="M3.80324 10.8372L5.42117 10.7806L5.12177 12.9712L3.80324 10.8372Z" fill="#D87C30"/>
<path id="Vector_12" d="M2.12509 13.9628L5.12195 12.9712L3.80325 10.8372L1.37551 11.0452L2.12509 13.9628Z" fill="#EB8F35"/>
<path id="Vector_13" d="M6.93919 5.75273L5.41664 7.04228L4.24467 8.46829L7.12734 8.53638L6.93919 5.75273Z" fill="#E8821E"/>
<path id="Vector_14" d="M5.1218 12.9712L6.99638 11.6417L6.84639 12.7724L6.84118 13.4072L5.57731 13.1769L5.12197 12.9712L5.1218 12.9712ZM10.7483 12.8976L8.93037 11.6164L9.06184 12.7434L9.05663 13.3782L10.3244 13.1148L10.7485 12.8976L10.7483 12.8976Z" fill="#DFCEC3"/>
<path id="Vector_15" d="M6.34864 9.14617L6.72878 9.95244L5.36043 9.61764L6.34864 9.14617Z" fill="#393939"/>
<path id="Vector_16" d="M2.18652 2.18219L6.93919 5.75271L6.14657 3.78806L2.18652 2.18219Z" fill="#E88F35"/>
<path id="Vector_17" d="M2.1865 2.1822L1.53755 4.13051L1.87193 6.24221L1.62454 6.3865L1.97367 6.69942L1.69019 6.95L2.0741 7.29769L1.82629 7.51242L2.38325 8.21055L5.02722 7.36486C5.02722 7.36486 6.97394 5.78749 6.93917 5.75273C6.90424 5.71763 2.1865 2.1822 2.1865 2.1822Z" fill="#8E5A30"/>
<path id="Vector_18" d="M13.5658 8.02893L14.5271 10.8731L12.0666 10.7642L10.4842 10.7849L10.4943 9.55041L10.5856 7.00982L10.9348 7.28751L13.5658 8.02893Z" fill="#F89D35"/>
<path id="Vector_19" d="M11.6995 8.3707L8.8154 8.47906L9.11976 9.95635L10.4941 9.58565L11.6995 8.3707Z" fill="#D87C30"/>
<path id="Vector_20" d="M11.6992 8.4061L10.4943 9.55044L10.4851 10.6791L11.6992 8.4061Z" fill="#EA8D3A"/>
<path id="Vector_21" d="M10.494 9.58565L9.08466 9.95681L8.61497 11.4794L8.93004 11.6518L10.4848 10.7143L10.494 9.58565Z" fill="#F89D35"/>
<path id="Vector_22" d="M10.4848 10.7144L10.7483 12.8976L8.93004 11.6518L10.4848 10.7144Z" fill="#EB8F35"/>
<path id="Vector_23" d="M8.81537 8.47908L8.61499 11.4795L9.15511 9.9383L8.81537 8.47908Z" fill="#EA8E3A"/>
<path id="Vector_24" d="M12.1022 10.7286L10.4848 10.7144L10.7483 12.8976L12.1022 10.7286Z" fill="#D87C30"/>
<path id="Vector_25" d="M13.7294 13.8108L10.7482 12.8976L12.1022 10.7285L14.5272 10.8731L13.7296 13.8108L13.7294 13.8108Z" fill="#EB8F35"/>
<path id="Vector_26" d="M9.04896 5.72514L10.5507 6.9751L11.6995 8.37072L8.81509 8.51431L9.04896 5.72514Z" fill="#E8821E"/>
<path id="Vector_27" d="M9.58376 9.10382L9.1903 9.92022L10.5648 9.54952L9.58376 9.10382Z" fill="#393939"/>
<path id="Vector_28" d="M13.8613 2.02937L9.04899 5.72511L9.87402 3.73928L13.8613 2.02937Z" fill="#E88F35"/>
<path id="Vector_29" d="M13.8612 2.02937L14.4783 3.9611L14.1092 6.08201L14.3543 6.21985L14 6.54198L14.2794 6.7852L13.8897 7.143L14.1341 7.3513L13.5657 8.06415L10.9347 7.28768C10.9347 7.28768 9.01344 5.76095 9.04879 5.72527C9.08447 5.68909 13.8612 2.02937 13.8612 2.02937Z" fill="#8E5A30"/>
</g>
</svg>
