<svg width="14" height="14" viewBox="0 0 14 14" fill="none" xmlns="http://www.w3.org/2000/svg">
<g id="icons8-nut 1">
<path id="Vector" d="M11.0833 1.16669C11.0833 2.05593 10.8798 2.31916 10.582 2.59426C10.0334 2.05444 9.02086 1.24574 7.81689 1.17238C6.93606 1.11988 6.13612 1.45307 5.41862 2.16473C5.31362 2.26973 5.25583 2.40969 5.25 2.55552V2.56122C5.33167 2.87039 5.83383 4.51452 7.65967 6.34035C9.468 8.14869 11.1007 8.65669 11.4274 8.75002H11.4388C11.5846 8.74419 11.7245 8.69223 11.8353 8.5814C12.547 7.86973 12.8801 7.06952 12.8276 6.19452C12.7582 4.98351 11.9397 3.96267 11.3978 3.41229C11.7895 2.99353 12.25 2.33853 12.25 1.16669H11.0833ZM4.28158 3.35988C4.21741 3.41822 4.15889 3.47687 4.09473 3.54104C2.53723 5.11604 1.75 6.86585 1.75 8.75002C1.75 9.43835 1.98967 9.97498 2.26383 10.4533C2.223 10.6341 1.94833 11.1237 1.75 11.4445L2.54867 12.25C2.86367 12.0575 3.36005 11.7839 3.54671 11.743C4.10671 12.0639 4.57333 12.25 5.25 12.25C7.07583 12.25 8.84949 11.4272 10.3895 9.88137C10.4303 9.84054 10.4937 9.77049 10.5695 9.68882C9.7645 9.38549 8.35374 8.67961 6.83708 7.16294C5.27374 5.59961 4.57324 4.14738 4.28158 3.35988Z" fill="#824E00"/>
</g>
</svg>
