<svg width="36" height="36" viewBox="0 0 36 36" fill="none" xmlns="http://www.w3.org/2000/svg">
<g id="Frame" clip-path="url(#clip0_1727_679)">
<path id="Vector" d="M4.34668 6.26993C12.7137 -3.46657 28.2297 -1.54507 34.0287 9.83243H20.0892C17.5782 9.83243 15.9567 9.77543 14.2002 10.6994C12.1362 11.7869 10.5792 13.8014 10.0347 16.1669L4.34668 6.27143V6.26993Z" fill="#EA4335"/>
<path id="Vector_2" d="M12.0117 18.0001C12.0117 21.3001 14.6952 23.9851 17.9937 23.9851C21.2937 23.9851 23.9757 21.3001 23.9757 18.0001C23.9757 14.7001 21.2922 12.0151 17.9937 12.0151C14.6937 12.0151 12.0117 14.7001 12.0117 18.0001Z" fill="#4285F4"/>
<path id="Vector_3" d="M20.316 25.8343C16.9575 26.8318 13.029 25.7248 10.8765 22.0093C9.23247 19.1743 4.89147 11.6113 2.91897 8.17334C-3.99153 18.7633 1.96497 33.1978 14.5095 35.6608L20.3145 25.8343H20.316Z" fill="#34A853"/>
<path id="Vector_4" d="M23.5501 12.0152C24.9024 13.2777 25.7879 14.9606 26.0624 16.7901C26.3369 18.6197 25.9844 20.4884 25.0621 22.0922C23.6356 24.5522 19.0801 32.2412 16.8721 35.9642C29.7976 36.7607 39.2221 24.0932 34.9651 12.0137H23.5501V12.0152Z" fill="#FBBC05"/>
</g>
<defs>
<clipPath id="clip0_1727_679">
<rect width="36" height="36" fill="white"/>
</clipPath>
</defs>
</svg>
