<svg width="18" height="18" viewBox="0 0 18 18" fill="none" xmlns="http://www.w3.org/2000/svg">
<path d="M8.99378 0.195361C8.88783 0.197017 8.78687 0.240641 8.71305 0.316659C8.63923 0.392677 8.59858 0.494877 8.60003 0.60083V3.40083C8.59928 3.45383 8.60908 3.50646 8.62884 3.55565C8.64861 3.60483 8.67795 3.6496 8.71517 3.68735C8.75239 3.7251 8.79674 3.75507 8.84564 3.77553C8.89454 3.79599 8.94702 3.80653 9.00003 3.80653C9.05304 3.80653 9.10553 3.79599 9.15443 3.77553C9.20333 3.75507 9.24768 3.7251 9.2849 3.68735C9.32212 3.6496 9.35146 3.60483 9.37123 3.55565C9.39099 3.50646 9.40078 3.45383 9.40003 3.40083V0.60083C9.40077 0.547314 9.39075 0.494196 9.37059 0.444619C9.35042 0.395043 9.32051 0.350018 9.28263 0.312209C9.24475 0.274401 9.19967 0.244578 9.15005 0.224507C9.10044 0.204436 9.0473 0.194525 8.99378 0.195361ZM4.78206 1.32114C4.71272 1.32382 4.64526 1.34449 4.58632 1.38112C4.52738 1.41776 4.47898 1.46909 4.44588 1.53009C4.41279 1.59109 4.39612 1.65964 4.39754 1.72903C4.39895 1.79841 4.41839 1.86623 4.45394 1.92583L5.85394 4.35083C5.87863 4.39912 5.91288 4.44188 5.95461 4.47652C5.99634 4.51116 6.04468 4.53695 6.09669 4.55233C6.1487 4.5677 6.20329 4.57234 6.25714 4.56597C6.311 4.55959 6.363 4.54233 6.40998 4.51524C6.45696 4.48814 6.49794 4.45178 6.53043 4.40835C6.56292 4.36493 6.58624 4.31535 6.59897 4.26263C6.61171 4.20992 6.61359 4.15516 6.6045 4.10169C6.59542 4.04823 6.57556 3.99716 6.54613 3.95161L5.14613 1.52583C5.11019 1.46149 5.05717 1.40832 4.99293 1.3722C4.92869 1.33608 4.85571 1.31841 4.78206 1.32114ZM13.2063 1.32114C13.1346 1.32056 13.0641 1.33925 13.0021 1.37526C12.9401 1.41127 12.8889 1.46327 12.8539 1.52583L11.4539 3.95161C11.4245 3.99716 11.4046 4.04823 11.3956 4.10169C11.3865 4.15516 11.3884 4.20992 11.4011 4.26263C11.4138 4.31535 11.4371 4.36493 11.4696 4.40835C11.5021 4.45178 11.5431 4.48814 11.5901 4.51524C11.6371 4.54233 11.6891 4.55959 11.7429 4.56597C11.7968 4.57234 11.8514 4.5677 11.9034 4.55233C11.9554 4.53695 12.0037 4.51116 12.0455 4.47652C12.0872 4.44188 12.1214 4.39912 12.1461 4.35083L13.5461 1.92583C13.5821 1.86538 13.6015 1.79652 13.6024 1.72617C13.6033 1.65583 13.5856 1.5865 13.5511 1.52517C13.5167 1.46384 13.4666 1.41269 13.4061 1.37687C13.3456 1.34104 13.2766 1.32182 13.2063 1.32114ZM1.73519 4.39771C1.7219 4.3973 1.70861 4.39756 1.69535 4.39849C1.60911 4.40387 1.52693 4.43702 1.46111 4.49299C1.39529 4.54896 1.34935 4.62474 1.33018 4.70899C1.31101 4.79324 1.31963 4.88143 1.35476 4.96037C1.38988 5.03931 1.44962 5.10476 1.52503 5.14692L3.95081 6.54692C3.99637 6.57635 4.04743 6.59622 4.1009 6.6053C4.15436 6.61439 4.20912 6.6125 4.26184 6.59977C4.31455 6.58704 4.36413 6.56371 4.40756 6.53123C4.45098 6.49874 4.48735 6.45776 4.51444 6.41078C4.54154 6.3638 4.5588 6.3118 4.56517 6.25794C4.57155 6.20408 4.56691 6.14949 4.55153 6.09749C4.53615 6.04548 4.51036 5.99714 4.47572 5.95541C4.44108 5.91368 4.39832 5.87943 4.35003 5.85474L1.92503 4.45474C1.86754 4.4201 1.80225 4.40049 1.73519 4.39771ZM16.2922 4.39849C16.2159 4.39614 16.1406 4.41565 16.075 4.45474L13.65 5.85474C13.6017 5.87943 13.559 5.91368 13.5243 5.95541C13.4897 5.99714 13.4639 6.04548 13.4485 6.09749C13.4332 6.14949 13.4285 6.20408 13.4349 6.25794C13.4413 6.3118 13.4585 6.3638 13.4856 6.41078C13.5127 6.45776 13.5491 6.49874 13.5925 6.53123C13.6359 6.56371 13.6855 6.58704 13.7382 6.59977C13.7909 6.6125 13.8457 6.61439 13.8992 6.6053C13.9526 6.59622 14.0037 6.57635 14.0493 6.54692L16.475 5.14692C16.5511 5.10411 16.6111 5.03759 16.6458 4.95751C16.6806 4.87743 16.6882 4.78818 16.6674 4.70338C16.6467 4.61858 16.5989 4.54288 16.5311 4.48783C16.4634 4.43279 16.3795 4.40141 16.2922 4.39849ZM0.600033 8.60083C0.547028 8.60008 0.494403 8.60987 0.445216 8.62964C0.396028 8.6494 0.35126 8.67875 0.313512 8.71597C0.275764 8.75318 0.24579 8.79753 0.225331 8.84643C0.204872 8.89534 0.194336 8.94782 0.194336 9.00083C0.194336 9.05384 0.204872 9.10632 0.225331 9.15522C0.24579 9.20413 0.275764 9.24848 0.313512 9.28569C0.35126 9.32291 0.396028 9.35226 0.445216 9.37202C0.494403 9.39179 0.547028 9.40158 0.600033 9.40083H3.40003C3.45304 9.40158 3.50566 9.39179 3.55485 9.37202C3.60404 9.35226 3.64881 9.32291 3.68655 9.28569C3.7243 9.24848 3.75428 9.20413 3.77474 9.15522C3.79519 9.10632 3.80573 9.05384 3.80573 9.00083C3.80573 8.94782 3.79519 8.89534 3.77474 8.84643C3.75428 8.79753 3.7243 8.75318 3.68655 8.71597C3.64881 8.67875 3.60404 8.6494 3.55485 8.62964C3.50566 8.60987 3.45304 8.60008 3.40003 8.60083H0.600033ZM14.6 8.60083C14.547 8.60008 14.4944 8.60987 14.4452 8.62964C14.396 8.6494 14.3513 8.67875 14.3135 8.71597C14.2758 8.75318 14.2458 8.79753 14.2253 8.84643C14.2049 8.89534 14.1943 8.94782 14.1943 9.00083C14.1943 9.05384 14.2049 9.10632 14.2253 9.15522C14.2458 9.20413 14.2758 9.24848 14.3135 9.28569C14.3513 9.32291 14.396 9.35226 14.4452 9.37202C14.4944 9.39179 14.547 9.40158 14.6 9.40083H17.4C17.453 9.40158 17.5057 9.39179 17.5549 9.37202C17.604 9.35226 17.6488 9.32291 17.6866 9.28569C17.7243 9.24848 17.7543 9.20413 17.7747 9.15522C17.7952 9.10632 17.8057 9.05384 17.8057 9.00083C17.8057 8.94782 17.7952 8.89534 17.7747 8.84643C17.7543 8.79753 17.7243 8.75318 17.6866 8.71597C17.6488 8.67875 17.604 8.6494 17.5549 8.62964C17.5057 8.60987 17.453 8.60008 17.4 8.60083H14.6ZM13.8594 11.3977C13.8461 11.3973 13.8328 11.3976 13.8196 11.3985C13.7334 11.404 13.6513 11.4373 13.5856 11.4933C13.5199 11.5493 13.4741 11.6251 13.455 11.7093C13.4359 11.7935 13.4446 11.8817 13.4798 11.9605C13.5149 12.0394 13.5747 12.1048 13.65 12.1469L16.075 13.5469C16.1206 13.5757 16.1714 13.595 16.2246 13.6036C16.2778 13.6123 16.3322 13.6101 16.3845 13.5972C16.4368 13.5843 16.4859 13.561 16.529 13.5286C16.5721 13.4963 16.6082 13.4556 16.6351 13.4089C16.6621 13.3623 16.6793 13.3107 16.6859 13.2572C16.6924 13.2037 16.688 13.1495 16.6731 13.0977C16.6581 13.046 16.6329 12.9978 16.5989 12.956C16.5648 12.9143 16.5227 12.8798 16.475 12.8547L14.0493 11.4547C13.9918 11.4201 13.9265 11.4005 13.8594 11.3977ZM4.168 11.3985C4.09172 11.3961 4.01636 11.4157 3.95081 11.4547L1.52503 12.8547C1.47736 12.8798 1.43525 12.9143 1.40121 12.956C1.36718 12.9978 1.34193 13.046 1.32698 13.0977C1.31203 13.1495 1.30769 13.2037 1.31421 13.2572C1.32074 13.3107 1.33799 13.3623 1.36494 13.4089C1.3919 13.4556 1.42799 13.4963 1.47106 13.5286C1.51414 13.561 1.5633 13.5843 1.6156 13.5972C1.66791 13.6101 1.72227 13.6123 1.77545 13.6036C1.82862 13.595 1.8795 13.5757 1.92503 13.5469L4.35003 12.1469C4.42606 12.1041 4.48602 12.0377 4.52078 11.9577C4.55554 11.8777 4.5632 11.7885 4.54258 11.7037C4.52197 11.619 4.47421 11.5433 4.40659 11.4882C4.33896 11.4331 4.25518 11.4016 4.168 11.3985ZM6.20628 13.4454C6.13452 13.4449 6.06395 13.4637 6.00196 13.4998C5.93997 13.536 5.88884 13.5881 5.85394 13.6508L4.45394 16.0758C4.42516 16.1214 4.40587 16.1722 4.39724 16.2254C4.3886 16.2786 4.39079 16.333 4.40368 16.3853C4.41657 16.4376 4.43989 16.4867 4.47224 16.5298C4.50459 16.5729 4.5453 16.609 4.59195 16.6359C4.63859 16.6629 4.69019 16.6801 4.74366 16.6866C4.79713 16.6932 4.85137 16.6888 4.90312 16.6739C4.95488 16.6589 5.00308 16.6337 5.04483 16.5996C5.08659 16.5656 5.12104 16.5235 5.14613 16.4758L6.54613 14.05C6.58212 13.9896 6.60153 13.9207 6.60242 13.8504C6.6033 13.78 6.58561 13.7107 6.55114 13.6494C6.51668 13.5881 6.46665 13.5369 6.4061 13.5011C6.34555 13.4653 6.27663 13.446 6.20628 13.4454ZM11.7821 13.4461C11.7128 13.4489 11.6455 13.4696 11.5867 13.5062C11.5278 13.5428 11.4795 13.594 11.4464 13.6549C11.4134 13.7158 11.3967 13.7842 11.398 13.8535C11.3993 13.9227 11.4186 13.9905 11.4539 14.05L12.8539 16.4758C12.879 16.5235 12.9135 16.5656 12.9552 16.5996C12.997 16.6337 13.0452 16.6589 13.0969 16.6739C13.1487 16.6888 13.2029 16.6932 13.2564 16.6866C13.3099 16.6801 13.3615 16.6629 13.4081 16.6359C13.4548 16.609 13.4955 16.5729 13.5278 16.5298C13.5602 16.4867 13.5835 16.4376 13.5964 16.3853C13.6093 16.333 13.6115 16.2786 13.6028 16.2254C13.5942 16.1722 13.5749 16.1214 13.5461 16.0758L12.1461 13.6508C12.1102 13.5865 12.0572 13.5333 11.9929 13.4972C11.9287 13.4611 11.8557 13.4434 11.7821 13.4461ZM8.99378 14.1954C8.88783 14.197 8.78687 14.2406 8.71305 14.3167C8.63923 14.3927 8.59858 14.4949 8.60003 14.6008V17.4008C8.59928 17.4538 8.60908 17.5065 8.62884 17.5556C8.64861 17.6048 8.67795 17.6496 8.71517 17.6873C8.75239 17.7251 8.79674 17.7551 8.84564 17.7755C8.89454 17.796 8.94702 17.8065 9.00003 17.8065C9.05304 17.8065 9.10553 17.796 9.15443 17.7755C9.20333 17.7551 9.24768 17.7251 9.2849 17.6873C9.32212 17.6496 9.35146 17.6048 9.37123 17.5556C9.39099 17.5065 9.40078 17.4538 9.40003 17.4008V14.6008C9.40077 14.5473 9.39075 14.4942 9.37059 14.4446C9.35042 14.395 9.32051 14.35 9.28263 14.3122C9.24475 14.2744 9.19967 14.2446 9.15005 14.2245C9.10044 14.2044 9.0473 14.1945 8.99378 14.1954Z" fill="white"/>
</svg>
