<svg width="14" height="14" viewBox="0 0 14 14" fill="none" xmlns="http://www.w3.org/2000/svg">
<g id="icons8-high_priority 1" clip-path="url(#clip0_951_900)">
<path id="Vector" d="M6.99989 0.592285C6.77056 0.592285 6.54123 0.675811 6.3744 0.842936L0.842984 6.37435C0.497651 6.71968 0.497651 7.28058 0.842984 7.62533L6.3744 13.1579C6.54123 13.3247 6.76364 13.4165 6.99989 13.4165C7.23614 13.4165 7.45796 13.3247 7.62537 13.1579L13.1579 7.62533C13.5033 7.27999 13.5033 6.7191 13.1579 6.37435L7.62537 0.842936C7.45825 0.675811 7.22921 0.592285 6.99989 0.592285ZM6.99989 1.86605L12.1337 6.99984L6.99989 12.1336L1.8661 6.99984L6.99989 1.86605ZM6.41655 4.08317V7.58317H7.58322V4.08317H6.41655ZM6.41655 8.74984V9.9165H7.58322V8.74984H6.41655Z" fill="#3E5BF2"/>
</g>
<defs>
<clipPath id="clip0_951_900">
<rect width="14" height="14" fill="white"/>
</clipPath>
</defs>
</svg>
