<svg width="50" height="50" viewBox="0 0 50 50" fill="none" xmlns="http://www.w3.org/2000/svg">
<g id="icons8-windows_10_personalization 1">
<path id="Vector" d="M45.5527 0.945312C44.5269 0.945312 43.5016 1.33437 42.7246 2.11133L37.834 7H4C2.897 7 2 7.897 2 9V34C2 35.103 2.897 36 4 36H19V40H17C14.8027 40 13 41.8027 13 44C13 44.2652 13.1054 44.5195 13.2929 44.7071C13.4805 44.8946 13.7348 45 14 45H36C36.2652 45 36.5195 44.8946 36.7071 44.7071C36.8946 44.5195 37 44.2652 37 44C37 41.8027 35.1973 40 33 40H31V36H46C47.103 36 48 35.103 48 34V9C48 8.7478 47.9454 8.51078 47.8594 8.28906L48.3809 7.76758C49.9348 6.21367 49.9348 3.66524 48.3809 2.11133C47.6039 1.33437 46.5786 0.945312 45.5527 0.945312ZM45.5527 2.93164C46.0624 2.93164 46.5718 3.13035 46.9668 3.52539C47.7569 4.31548 47.7569 5.56343 46.9668 6.35352L36.3594 16.9609L33.5312 14.1328L44.1387 3.52539C44.5337 3.13035 45.0431 2.93164 45.5527 2.93164ZM4 9H35.834L27.0508 17.7812C26.0739 17.986 25.2693 18.3804 24.6484 18.9258C23.8232 19.6506 23.3547 20.5904 23.0625 21.5332C22.5718 23.1166 22.4743 24.7649 22.2129 26H8C7.86749 25.9981 7.73593 26.0226 7.61296 26.072C7.48999 26.1214 7.37807 26.1948 7.2837 26.2878C7.18933 26.3809 7.11439 26.4918 7.06324 26.614C7.0121 26.7363 6.98576 26.8675 6.98576 27C6.98576 27.1325 7.0121 27.2637 7.06324 27.386C7.11439 27.5082 7.18933 27.6191 7.2837 27.7122C7.37807 27.8052 7.48999 27.8786 7.61296 27.928C7.73593 27.9774 7.86749 28.0019 8 28H24C24.0829 28.0005 24.1656 27.9906 24.2461 27.9707C26.6307 27.9077 28.428 27.6537 29.8184 26.9355C31.1638 26.2406 32.0253 25.0785 32.5547 23.5938L32.8242 23.3242L46 10.1484L46.002 34H4V32H46V30H4V9ZM32.1172 15.5469L34.9453 18.375L32.1172 21.2031L29.2891 18.375L32.1172 15.5469ZM27.8496 19.7637L30.7188 22.6328C30.3355 23.8985 29.8524 24.6665 28.9004 25.1582C27.9925 25.6272 26.3795 25.852 24.2227 25.9297C24.473 24.5948 24.6424 23.1927 24.9727 22.127C25.198 21.3998 25.5046 20.8354 25.9688 20.4277C26.3584 20.0854 27.0276 19.8877 27.8496 19.7637ZM21 36H29V40H21V36ZM17 42H19H31H33C33.723 42 34.2389 42.4359 34.5898 43H15.4102C15.7611 42.4359 16.277 42 17 42Z" fill="black"/>
</g>
</svg>
