<svg width="50" height="50" viewBox="0 0 50 50" fill="none" xmlns="http://www.w3.org/2000/svg">
<g id="icons8-mind_map 1" clip-path="url(#clip0_1727_788)">
<path id="Vector" d="M6 0C2.69922 0 0 2.69922 0 6C0 9.30078 2.69922 12 6 12C7.29297 12 8.48828 11.5781 9.46875 10.875L17.25 18.6875C15.8398 20.4102 15 22.6055 15 25C15 26.9805 15.5977 28.8203 16.5938 30.375L10.0312 35.5625C8.96484 34.5938 7.54688 34 6 34C2.69922 34 0 36.6992 0 40C0 43.3008 2.69922 46 6 46C9.30078 46 12 43.3008 12 40C12 38.9531 11.7266 37.9844 11.25 37.125L17.8438 31.9375C19.6641 33.8125 22.1875 35 25 35C26.3281 35 27.5898 34.7539 28.75 34.2812L31.375 39.25C29.9414 40.3477 29 42.0625 29 44C29 47.3008 31.6992 50 35 50C38.3008 50 41 47.3008 41 44C41 40.6992 38.3008 38 35 38C34.3477 38 33.7148 38.1172 33.125 38.3125L30.5 33.3438C32.3867 32.0977 33.8281 30.2266 34.5312 28.0312L38 28.75C37.9961 28.832 38 28.918 38 29C38 32.3008 40.6992 35 44 35C47.3008 35 50 32.3008 50 29C50 25.6992 47.3008 23 44 23C41.4648 23 39.2812 24.5781 38.4062 26.8125L34.9375 26.0625C34.9727 25.7148 35 25.3555 35 25C35 21.0664 32.6914 17.6602 29.375 16.0312L30.9062 11.9062C31.2578 11.9688 31.6328 12 32 12C35.3008 12 38 9.30078 38 6C38 2.69922 35.3008 0 32 0C28.6992 0 26 2.69922 26 6C26 8.21484 27.2344 10.1484 29.0312 11.1875L27.5 15.3438C26.6953 15.1328 25.8672 15 25 15C22.6055 15 20.4102 15.8398 18.6875 17.25L10.875 9.46875C11.5781 8.48828 12 7.29297 12 6C12 2.69922 9.30078 0 6 0ZM6 2C8.22266 2 10 3.77734 10 6C10 8.22266 8.22266 10 6 10C3.77734 10 2 8.22266 2 6C2 3.77734 3.77734 2 6 2ZM32 2C34.2227 2 36 3.77734 36 6C36 8.22266 34.2227 10 32 10C29.7773 10 28 8.22266 28 6C28 3.77734 29.7773 2 32 2ZM25 17C29.4336 17 33 20.5742 33 25C33 29.4336 29.4336 33 25 33C20.5703 33 17 29.4336 17 25C17 22.8477 17.8438 20.9062 19.2188 19.4688C19.3008 19.4062 19.375 19.332 19.4375 19.25C20.875 17.8594 22.832 17 25 17ZM44 25C46.2227 25 48 26.7773 48 29C48 31.2227 46.2227 33 44 33C41.7773 33 40 31.2227 40 29C40 26.7773 41.7773 25 44 25ZM6 36C8.22266 36 10 37.7773 10 40C10 42.2227 8.22266 44 6 44C3.77734 44 2 42.2227 2 40C2 37.7773 3.77734 36 6 36ZM35 40C37.2227 40 39 41.7773 39 44C39 46.2227 37.2227 48 35 48C32.7773 48 31 46.2227 31 44C31 42.4844 31.8281 41.1797 33.0625 40.5C33.0938 40.4922 33.125 40.4805 33.1562 40.4688C33.168 40.4609 33.1758 40.4453 33.1875 40.4375C33.207 40.4297 33.2305 40.418 33.25 40.4062C33.7773 40.1523 34.3711 40 35 40Z" fill="black"/>
</g>
<defs>
<clipPath id="clip0_1727_788">
<rect width="50" height="50" fill="white"/>
</clipPath>
</defs>
</svg>
