<svg width="20" height="20" viewBox="0 0 20 20" fill="none" xmlns="http://www.w3.org/2000/svg">
<g id="icons8-checkmark 1">
<path id="Vector" d="M9.99984 1.66602C5.40484 1.66602 1.6665 5.40435 1.6665 9.99935C1.6665 14.5943 5.40484 18.3327 9.99984 18.3327C14.5948 18.3327 18.3332 14.5943 18.3332 9.99935C18.3332 9.06102 18.1698 8.16118 17.8823 7.31868L16.533 8.66797C16.6205 9.09797 16.6665 9.54352 16.6665 9.99935C16.6665 13.6752 13.6757 16.666 9.99984 16.666C6.324 16.666 3.33317 13.6752 3.33317 9.99935C3.33317 6.32352 6.324 3.33268 9.99984 3.33268C11.3607 3.33268 12.6264 3.74426 13.6831 4.44759L14.8761 3.25456C13.5028 2.25956 11.8207 1.66602 9.99984 1.66602ZM17.744 2.74349L9.1665 11.321L6.42236 8.57682L5.24398 9.75521L9.1665 13.6777L18.9224 3.92188L17.744 2.74349Z" fill="white"/>
</g>
</svg>
